<svg aria-label="Resort marker" width="27" height="27" viewBox="0 0 27 27" fill="none" xmlns="http://www.w3.org/2000/svg">
        <rect width="27" height="27" fill="white"></rect>
        <path d="M0.084146 7.61016L2.13486 5.5607L8.84754 12.2737H12.1564V8.81406L5.44642 2.1024L7.49714 0.0529332L12.1564 4.71377V0H0V12.2737H4.74746L0.084146 7.61016Z" fill="#D70300"></path>
        <path d="M7.49714 26.9376L5.44642 24.8881L12.1564 18.1778V15.1715H8.82718L2.13486 21.8655L0.084146 19.8147L4.72846 15.1715H0V27H12.1564V22.2754L7.49714 26.9376Z" fill="#D70300"></path>
        <path d="M26.9674 19.8147L24.9181 21.8655L18.2244 15.1715H15.0553V18.1914L21.7504 24.8881L19.701 26.9376L15.0553 22.2917V27H27V15.1715H22.3245L26.9674 19.8147Z" fill="#D70300"></path>
        <path d="M15.0553 0V4.69884L19.701 0.0529332L21.7504 2.1024L15.0553 8.79913V12.2737H18.204L24.9181 5.5607L26.9674 7.61016L22.3055 12.2737H27V0H15.0553Z" fill="#D70300"></path>
      </svg>